<svg fill="none" height="45" viewBox="0 0 160 45" width="160" xmlns="http://www.w3.org/2000/svg"><g fill="#000"><path d="m111.955 17.6081c1.098 0 1.988-.8901 1.988-1.988 0-1.098-.89-1.988-1.988-1.988s-1.988.89-1.988 1.988c0 1.0979.89 1.988 1.988 1.988z"/><path d="m157.087 22.2431c-3.067-.067-9.066 4.751-9.774 5.492l3.135-5.357h-4.719c-6.066 10.276-18.739 20.283-24.367 20.485-5.09.37-5.46-3.268-3.775-7.58v.033c7.213.741 19.885-6.671 15.908-12.163-3.404-3.403-12.571.169-18.402 7.951l-.404.607-.876 1.28c-2.056 2.763-6.303 6.738-6.303 6.738-5.46 5.357-7.9199 2.224-5.628-1.65l8.998-15.6h-4.044c-1.112 1.516-6.572 11.523-15.4359 17.79-5.022 3.84-8.931 2.19-5.426-2.797l8.796-14.993 4.887-.033.6399-.674h-5.0209l5.3249-9.3h-4.4489c-2.36 4.01-7.886 13.343-13.414 15.701.978-1.314.64-3.066.64-3.066-.404-2.021-2.662-2.223-2.662-2.223s-3.202-.472-6.842 2.762l1.955-3.234h-4.482c-3.91 6.94-14.29 21.697-19.953 20.282-1.516-.674-1.617-2.594-.033-5.188l8.965-15.161h-4.45c-.606.91-2.426 4.38-2.392 4.312.168-.91.404-4.414-3.033-5.121-.776-.169-1.315-.202-2.056-.202-3.809-.034-7.65 1.954-11.426 5.29-2.662 2.358-5.19 5.491-7.313 9.4-9.134 8.389-18.503 8.86-21.57004 5.727-3.236-3.336-4.516-10.175 1.483-21.698 2.12304-2.998 10.01004-16.00301 21.36804-19.00201 8.493-2.257 11.93 2.527 12.234 8.086 0 0 2.561-4.817 5.46-7.816-1.787.741-5.696 1.65-7.516.539-5.494-3.504-16.077-2.965-29.625 9.63601-11.628039 11.792-19.88504 34.702 3.168 32.917 8.156-1.011 14.998-7.514 14.998-7.514-1.079 3.942.674 6.907 4.044 7.514 1.247.235 3-.102 4.483-.674 1.247-.506 3.876-1.584 7.313-4.28-1.078 4.313 5.595 10.748 17.897-4.446l-5.696 9.13 5.19-.034s8.662-15.296 10.246-16.846c3.37-4.48 9.572-5.323 9.47-2.19-.674-.336-1.28-.437-1.786-.336-1.483.235-2.157 2.089-1.853 3.369.168.438.404.876 1.112 1.213 0 0 2.898 2.021 9.875-6.705l-1.011 1.786s-7.044 12.129-7.954 13.847c-3.573 6.84 4.887 7.48 9.942 3.133 0 0 4.112-3.032 8.797-8.153-.0635.1086-.1199.2212-.169.337-2.427 4.346-5.09 8.793-1.651 10.714.977.438 3.6399.741 6.9429-1.584 0 0 5.29-4.346 8.088-7.884-1.18 2.73-2.258 7.21 2.528 9.232 2.696.842 4.887.303 7.583-.607 8.46-2.762 19.278-15.16 19.278-15.16s-9.167 15.228-9.47 15.8l4.65-.033s6.607-11.186 7.955-13.072c3.606-5.66 11.425-9.535 12.234-7.581-2.898-.573-3.606 3.706-1.314 4.582 3.572 1.381 5.628-5.458.707-5.728zm-28.08.32c1.248.135 1.854.775 1.72 2.527-.405 3.775-5.932 9.942-13.01 9.74 2.461-5.797 8.325-12.537 11.29-12.267zm-85.0269 17.187c-1.348 1.146-3 2.056-3 2.056-6.773 3.404-8.29-.303-7.549-3.74.64-2.966 3.27-7.314 5.426-9.976 1.955-2.19 4.01-3.876 6.64-5.156 5.628-2.764 9.065.707 6.74 5.628-1.55 3.235-4.044 7.582-8.257 11.188z"/></g></svg>